<?xml version="1.0" encoding="UTF-8" standalone="no"?><svg xmlns="http://www.w3.org/2000/svg" xmlns:xlink="http://www.w3.org/1999/xlink" data-name="Layer 1" fill="#000000" height="386.2" preserveAspectRatio="xMidYMid meet" version="1" viewBox="-0.1 0.0 386.2 386.2" width="386.2" zoomAndPan="magnify"><g id="change1_1"><path d="M250,56.93H250C143.48,56.93,56.9,143.53,56.9,250A191.57,191.57,0,0,0,87.41,354a23.86,23.86,0,0,1,2.46,20.49L72.1,427.41a4,4,0,0,0,5,5.07l60.4-19.32a14.28,14.28,0,0,1,11.81,1.49A191.39,191.39,0,0,0,250,443.07c106.48,0,193.06-86.63,193.06-193.08S352,57,250,56.93Z" fill="#cdad7d" transform="translate(-56.9 -56.93)"/></g><g id="change2_1"><path d="M362.39,329.57c-4.64,13.14-23.15,24.05-37.88,27.25-10.1,2.13-23.27,3.84-67.63-14.54-56.75-23.52-93.3-81.15-96.15-84.88s-22.92-30.56-22.92-58.24,14.08-41.21,19.75-47c4.65-4.76,12.35-6.92,19.73-6.92,2.4,0,4.53.11,6.47.22,5.68.23,8.53.57,12.26,9.52,4.68,11.24,16,38.94,17.36,41.79s2.77,6.7.83,10.43c-1.83,3.88-3.42,5.59-6.24,8.87s-5.56,5.78-8.41,9.32c-2.63,3.05-5.56,6.35-2.29,12s14.63,24.08,31.33,38.93c21.56,19.19,39,25.31,45.3,27.94,4.65,1.91,10.21,1.45,13.6-2.17,4.34-4.65,9.67-12.37,15.08-20,3.88-5.45,8.75-6.13,13.86-4.19s32.81,15.45,38.48,18.27,9.41,4.19,10.78,6.58,1.37,13.63-3.31,26.8Z" fill="#fafafa" transform="translate(-56.9 -56.93)"/></g></svg>